HIERARCHY
ROOT Hips
{
	OFFSET 0.000000 0.000000 0.000000 
	CHANNELS 6 Xposition Yposition Zposition Zrotation Yrotation Xrotation
	JOINT LeftUpLeg
	{
		OFFSET 1.363060 -1.794630 0.839290 
		CHANNELS 3 Zrotation Yrotation Xrotation
		JOINT LeftLeg
		{
			OFFSET 2.448110 -6.726130 0.000000 
			CHANNELS 3 Zrotation Yrotation Xrotation
			JOINT LeftFoot
			{
				OFFSET 2.562200 -7.039590 0.000000 
				CHANNELS 3 Zrotation Yrotation Xrotation
				JOINT LeftToeBase
				{
					OFFSET 0.157640 -0.433110 2.322550 
					CHANNELS 3 Zrotation Yrotation Xrotation
					End Site
					{
						OFFSET 0.000000 0.000000 0.000000 
					}
				}
			}
		}
	}
	JOINT RightUpLeg
	{
		OFFSET -1.305520 -1.794630 0.839290 
		CHANNELS 3 Zrotation Yrotation Xrotation
		JOINT RightLeg
		{
			OFFSET -2.542530 -6.985550 0.000000 
			CHANNELS 3 Zrotation Yrotation Xrotation
			JOINT RightFoot
			{
				OFFSET -2.568260 -7.056230 0.000000 
				CHANNELS 3 Zrotation Yrotation Xrotation
				JOINT RightToeBase
				{
					OFFSET -0.164730 -0.452590 2.363150 
					CHANNELS 3 Zrotation Yrotation Xrotation
					End Site
					{
						OFFSET 0.000000 0.000000 0.000000 
					}
				}
			}
		}
	}
	JOINT Spine
	{
		OFFSET 0.028270 2.035590 -0.193380 
		CHANNELS 3 Zrotation Yrotation Xrotation
		JOINT Spine1
		{
			OFFSET 0.056720 2.048850 -0.042750 
			CHANNELS 3 Zrotation Yrotation Xrotation
			JOINT Neck1
			{
				OFFSET -0.054170 1.746240 0.172020 
				CHANNELS 3 Zrotation Yrotation Xrotation
				JOINT Head
				{
					OFFSET 0.104070 1.761360 -0.123970 
					CHANNELS 3 Zrotation Yrotation Xrotation
					End Site
					{
						OFFSET 0.000000 0.000000 0.000000 
					}
				}
			}
			JOINT LeftArm
			{
				OFFSET 3.362410 1.200890 -0.311210 
				CHANNELS 3 Zrotation Yrotation Xrotation
				JOINT LeftForeArm
				{
					OFFSET 4.983000 -0.000000 -0.000000 
					CHANNELS 3 Zrotation Yrotation Xrotation
					JOINT LeftHand
					{
						OFFSET 3.483560 -0.000000 -0.000000 
						CHANNELS 3 Zrotation Yrotation Xrotation
						JOINT LeftHandIndex1
						{
							OFFSET 0.715260 -0.000000 -0.000000 
							CHANNELS 3 Zrotation Yrotation Xrotation
							End Site
							{
								OFFSET 0.000000 0.000000 0.000000 
							}
						}
					}
				}
			}
			JOINT RightArm
			{
				OFFSET -3.136600 1.374050 -0.404650 
				CHANNELS 3 Zrotation Yrotation Xrotation
				JOINT RightForeArm
				{
					OFFSET -5.241900 -0.000000 -0.000000 
					CHANNELS 3 Zrotation Yrotation Xrotation
					JOINT RightHand
					{
						OFFSET -3.444170 -0.000000 -0.000000 
						CHANNELS 3 Zrotation Yrotation Xrotation
						JOINT RightHandIndex1
						{
							OFFSET -0.622530 -0.000000 -0.000000 
							CHANNELS 3 Zrotation Yrotation Xrotation
							End Site
							{
								OFFSET 0.000000 0.000000 0.000000 
							}
						}
					}
				}
			}
		}
	}
}
MOTION
Frames: 10
Frame Time: 0.041667
5.282125 17.947513 8.206475 -4.693210 -3.909691 1.965085 -8.303609 -11.301960 -26.304629 -1.619684 5.885817 17.927268 1.026142 2.283339 21.977736 0.085400 -1.885000 -5.188000 23.795037 8.607136 5.573851 -2.307307 -8.171721 31.289234 0.740154 -3.719473 8.622422 -0.103300 2.072500 -5.706100 2.477095 3.075044 2.455607 -0.755494 1.566374 -6.485307 5.431247 -5.518862 11.980602 0.297700 -2.331300 7.676900 -82.313658 9.377462 20.723898 12.063312 -20.923109 -2.466707 -0.875017 -0.921774 -0.683855 -7.125000 0.000000 0.000000 72.617150 6.699549 17.905970 -14.555341 27.810917 -4.554391 1.099941 -0.335780 -2.000837 7.125000 0.000000 0.000000 
5.302114 17.938931 8.418790 -4.404536 -3.614893 1.888522 -9.022732 -10.989249 -26.343120 -1.521729 6.116239 18.738409 1.157098 1.704327 22.214288 0.144000 -2.445600 -6.738800 23.512598 8.174395 4.725943 -2.805536 -8.745848 33.183743 0.837328 -4.279664 11.539305 -0.072000 1.731100 -4.763100 2.337217 3.035495 2.299938 -0.759178 1.538745 -6.647824 5.482059 -5.476932 11.753043 0.316900 -2.317600 7.503200 -82.147948 9.311242 20.442391 11.883037 -20.664227 -2.393056 -0.862377 -0.974232 -0.428211 -7.125000 0.000000 0.000000 72.826568 5.974300 17.381772 -14.374436 27.593386 -4.454231 1.124862 -0.382635 -1.684052 7.125000 0.000000 0.000000 
5.319681 17.969219 8.642109 -4.044843 -3.534835 1.894618 -9.900604 -10.365635 -26.213287 -1.345404 6.443569 19.830265 1.032029 1.437587 20.421787 0.117400 -2.208600 -6.082600 23.040057 7.828301 3.747052 -3.307690 -9.315230 35.039806 0.829189 -4.720627 14.479730 -0.045600 1.377400 -3.787900 2.250169 3.024960 2.235254 -0.603342 1.529330 -6.604269 5.419593 -5.522172 12.058111 0.289200 -2.329600 7.606900 -82.062770 9.189593 20.307280 11.723091 -20.431505 -2.327817 -0.861663 -1.016669 -0.870378 -7.125000 0.000000 0.000000 72.920341 5.585103 16.928241 -14.006615 27.116793 -4.254556 1.153659 -0.447327 -0.946304 7.125000 0.000000 0.000000 
5.342397 17.982646 8.862400 -4.004134 -3.446332 1.752443 -10.377344 -9.908493 -26.017537 -1.178097 6.745419 20.829876 1.025732 1.052377 19.405133 0.085800 -1.889200 -5.199600 22.944331 7.376563 2.892887 -3.850358 -9.862707 36.948592 0.780403 -5.108966 16.978945 -0.013900 0.761300 -2.092300 2.288617 2.993998 2.201151 -0.549373 1.502601 -6.635566 5.338896 -5.558624 12.338040 0.268000 -2.344900 7.715200 -82.133971 9.022381 20.087585 11.587667 -20.223323 -2.273465 -0.871107 -1.028801 -1.205031 -7.125000 0.000000 0.000000 72.957061 5.004102 16.802686 -13.872005 26.960560 -4.186800 1.169895 -0.444860 -0.973591 7.125000 0.000000 0.000000 
5.369453 18.000617 9.077440 -4.048690 -3.373947 1.586942 -10.655417 -9.773115 -25.712815 -0.999978 7.038163 21.826132 1.053016 0.619303 18.617917 0.020300 -0.920900 -2.531100 22.944195 7.062779 2.027851 -4.422226 -10.401367 38.852346 0.688449 -5.575986 19.687633 -0.001200 -0.223500 0.614100 2.296886 3.000242 2.195448 -0.631226 1.490599 -6.610748 5.283790 -5.591685 12.560911 0.251000 -2.357300 7.780200 -82.089083 9.171969 20.273511 11.623180 -20.264465 -2.292338 -0.876263 -0.946612 -2.292996 -7.125000 0.000000 0.000000 73.195121 4.409512 16.183498 -13.853595 26.955147 -4.190124 1.159618 -0.439180 -0.816256 7.125000 0.000000 0.000000 
5.402164 18.011722 9.289351 -3.712953 -3.150251 1.565511 -11.370471 -9.610797 -25.402849 -0.910354 7.166657 22.465333 1.203350 -0.273627 17.927866 0.010700 -0.669300 -1.839400 22.429134 6.620788 0.805124 -4.986841 -10.945848 40.776863 0.424935 -5.662683 22.473600 -0.051400 -1.463100 4.023900 2.212001 2.851890 2.122849 -0.597065 1.407187 -6.600903 5.494683 -5.566534 12.811759 0.366200 -2.330300 7.861500 -82.184511 9.327407 20.136370 11.326850 -19.776890 -2.191673 -0.926091 -0.728941 -3.957492 -7.125000 0.000000 0.000000 73.232966 3.979997 15.890144 -13.661545 26.720683 -4.105904 1.148888 -0.438678 -0.790514 7.125000 0.000000 0.000000 
5.428615 18.006775 9.495810 -3.282565 -3.028811 1.446112 -12.106300 -9.458972 -24.886567 -0.857278 7.187457 22.787968 1.229110 -0.643662 17.381388 0.024900 -1.019500 -2.802400 21.921766 6.443945 -0.384113 -5.630895 -11.531089 42.868875 0.215450 -6.022051 24.931735 -0.238300 -3.141800 8.673700 2.089797 2.738599 2.073407 -0.485838 1.341022 -6.699344 5.536566 -5.434177 13.029454 0.396500 -2.253800 7.954600 -82.189397 9.091266 19.186305 11.976551 -20.803500 -2.417767 -0.793912 -1.146754 0.006470 -7.125000 0.000000 0.000000 73.413498 3.591627 15.428470 -13.512574 26.535045 -4.046277 1.131735 -0.428783 -0.611545 7.125000 0.000000 0.000000 
5.442143 18.052509 9.707216 -3.172876 -2.988590 1.224693 -12.424820 -9.169680 -24.160850 -0.825514 7.152802 22.865471 1.132183 -0.491538 16.585781 0.002000 0.291600 0.801200 21.818689 6.313417 -1.386076 -6.348613 -12.099643 44.994123 0.176914 -6.948440 26.734169 -0.482300 -4.453300 12.355600 2.080059 2.657229 2.103838 -0.370850 1.290218 -6.782468 5.229421 -5.371017 13.403624 0.263700 -2.221000 8.121600 -82.094832 8.974551 19.123586 12.228993 -21.197986 -2.512907 -0.779742 -1.244895 0.641411 -7.125000 0.000000 0.000000 73.631552 3.241221 14.972306 -13.423991 26.425240 -4.011421 1.120948 -0.428580 -0.152073 7.125000 0.000000 0.000000 
5.456782 18.083301 9.907517 -2.752596 -2.779055 1.106202 -13.067156 -9.066404 -23.470964 -0.812971 7.080248 22.923703 1.131572 -0.731157 15.937045 0.004000 0.407000 1.118300 21.436222 6.204573 -2.613462 -7.134773 -12.695072 47.259804 0.177485 -8.062042 28.210979 -0.637600 -5.108900 14.219500 1.984864 2.521337 2.062418 -0.164375 1.219796 -6.879668 5.043095 -5.346772 13.685474 0.193200 -2.210400 8.210300 -82.005410 9.259597 19.561841 12.286317 -21.266013 -2.544930 -0.794320 -1.093379 -1.147465 -7.125000 0.000000 0.000000 73.727954 3.067621 14.573304 -13.127236 26.026242 -3.870685 1.116498 -0.438084 0.145056 7.125000 0.000000 0.000000 
5.474652 18.103796 10.091160 -2.500990 -2.526223 1.081037 -13.500780 -9.079283 -22.780820 -0.838213 6.948328 22.782403 1.151961 -0.961517 15.570704 0.001800 0.273800 0.752400 21.248135 6.116529 -4.015284 -7.960941 -13.264918 49.515110 0.111384 -9.288471 29.990150 -1.074800 -6.590200 18.506900 1.930780 2.353360 2.087015 -0.034971 1.133651 -6.866211 4.946809 -5.145986 13.397752 0.172900 -2.134000 8.076700 -81.831454 9.296424 20.315219 12.482294 -21.562545 -2.625910 -0.796697 -1.077372 -2.534534 -7.125000 0.000000 0.000000 73.814241 3.130938 14.271078 -12.788816 25.551890 -3.703030 1.118714 -0.466551 0.313848 7.125000 0.000000 0.000000 
